<svg width="25" height="25" viewBox="0 0 25 25" fill="none" xmlns="http://www.w3.org/2000/svg">
<path d="M0.265625 0.265625H24.7344V14.6094H0.265625V0.265625Z" fill="#787680"/>
<path d="M1.53125 1.53125H23.4688V13.3438H1.53125V1.53125Z" fill="#64C1F7"/>
<path d="M10.0278 11.036L11.4116 9.2599L12.8164 10.3146L11.0572 13.3437H2.79688V12.078C2.79688 11.6305 2.97466 11.2013 3.29113 10.8848C3.6076 10.5683 4.03682 10.3905 4.48438 10.3905H9.125L10.0278 11.036Z" fill="#DD636E"/>
<path d="M16.2969 23.8906V24.7344H8.70312V23.8906C8.70312 23.4431 8.88092 23.0139 9.19738 22.6974C9.51385 22.3809 9.94307 22.2031 10.3906 22.2031H14.6094C15.0569 22.2031 15.4861 22.3809 15.8026 22.6974C16.1191 23.0139 16.2969 23.4431 16.2969 23.8906Z" fill="#365E7D"/>
<path d="M11.6562 20.5156V22.2031C11.6562 22.4269 11.7451 22.6415 11.9034 22.7997C12.0616 22.958 12.2762 23.0469 12.5 23.0469C12.7238 23.0469 12.9384 22.958 13.0966 22.7997C13.2549 22.6415 13.3438 22.4269 13.3438 22.2031V20.5156H11.6562Z" fill="#FFCBBE"/>
<path d="M23.8906 23.8906V24.7344H16.2969V23.8906C16.2969 23.4431 16.4747 23.0139 16.7911 22.6974C17.1076 22.3809 17.5368 22.2031 17.9844 22.2031H22.2031C22.6507 22.2031 23.0799 22.3809 23.3964 22.6974C23.7128 23.0139 23.8906 23.4431 23.8906 23.8906Z" fill="#4A80AA"/>
<path d="M19.25 20.5156V22.2031C19.25 22.4269 19.3389 22.6415 19.4971 22.7997C19.6554 22.958 19.87 23.0469 20.0938 23.0469C20.3175 23.0469 20.5321 22.958 20.6904 22.7997C20.8486 22.6415 20.9375 22.4269 20.9375 22.2031V20.5156H19.25Z" fill="#FFCBBE"/>
<path d="M11.6562 20.8827C11.2939 20.7897 10.9729 20.5788 10.7437 20.2832C10.5146 19.9875 10.3903 19.624 10.3906 19.25V17.9844C10.3906 17.5368 10.5684 17.1076 10.8849 16.7911C11.2014 16.4747 11.6306 16.2969 12.0781 16.2969H12.9219C13.3694 16.2969 13.7986 16.4747 14.1151 16.7911C14.4316 17.1076 14.6094 17.5368 14.6094 17.9844V19.25C14.6097 19.624 14.4854 19.9875 14.2563 20.2832C14.0271 20.5788 13.7061 20.7897 13.3437 20.8827C13.2063 20.9203 13.0644 20.9388 12.9219 20.9375H12.0781C11.9356 20.9388 11.7937 20.9203 11.6562 20.8827Z" fill="#FFDDCE"/>
<path d="M19.25 20.8827C18.8877 20.7897 18.5666 20.5788 18.3375 20.2832C18.1083 19.9875 17.9841 19.624 17.9844 19.25V17.9844C17.9844 17.5368 18.1622 17.1076 18.4786 16.7911C18.7951 16.4747 19.2243 16.2969 19.6719 16.2969H20.5156C20.9632 16.2969 21.3924 16.4747 21.7089 16.7911C22.0253 17.1076 22.2031 17.5368 22.2031 17.9844V19.25C22.2034 19.624 22.0792 19.9875 21.85 20.2832C21.6209 20.5788 21.2998 20.7897 20.9375 20.8827C20.8001 20.9203 20.6581 20.9388 20.5156 20.9375H19.6719C19.5294 20.9388 19.3874 20.9203 19.25 20.8827Z" fill="#FFDDCE"/>
<path d="M23.8906 23.8906V24.7344H16.2969V23.8906C16.2969 23.4431 16.4747 23.0139 16.7911 22.6974C17.1076 22.3809 17.5368 22.2031 17.9844 22.2031H22.2031C22.6507 22.2031 23.0799 22.3809 23.3964 22.6974C23.7128 23.0139 23.8906 23.4431 23.8906 23.8906Z" fill="#4A80AA"/>
<path d="M19.25 20.5156V22.2031C19.25 22.4269 19.3389 22.6415 19.4971 22.7997C19.6554 22.958 19.87 23.0469 20.0938 23.0469C20.3175 23.0469 20.5321 22.958 20.6904 22.7997C20.8486 22.6415 20.9375 22.4269 20.9375 22.2031V20.5156H19.25Z" fill="#FFCBBE"/>
<path d="M19.25 20.8827C18.8877 20.7897 18.5666 20.5788 18.3375 20.2832C18.1083 19.9875 17.9841 19.624 17.9844 19.25V17.9844C17.9844 17.5368 18.1622 17.1076 18.4786 16.7911C18.7951 16.4747 19.2243 16.2969 19.6719 16.2969H20.5156C20.9632 16.2969 21.3924 16.4747 21.7089 16.7911C22.0253 17.1076 22.2031 17.5368 22.2031 17.9844V19.25C22.2034 19.624 22.0792 19.9875 21.85 20.2832C21.6209 20.5788 21.2998 20.7897 20.9375 20.8827C20.8001 20.9203 20.6581 20.9388 20.5156 20.9375H19.6719C19.5294 20.9388 19.3874 20.9203 19.25 20.8827Z" fill="#FFDDCE"/>
<path d="M8.70312 23.8906V24.7344H1.10938V23.8906C1.10938 23.4431 1.28716 23.0139 1.60363 22.6974C1.9201 22.3809 2.34932 22.2031 2.79688 22.2031H7.01562C7.46318 22.2031 7.8924 22.3809 8.20887 22.6974C8.52533 23.0139 8.70312 23.4431 8.70312 23.8906Z" fill="#4A80AA"/>
<path d="M4.0625 20.5156V22.2031C4.0625 22.4269 4.1514 22.6415 4.30963 22.7997C4.46786 22.958 4.68247 23.0469 4.90625 23.0469C5.13003 23.0469 5.34464 22.958 5.50287 22.7997C5.66111 22.6415 5.75 22.4269 5.75 22.2031V20.5156H4.0625Z" fill="#FFCBBE"/>
<path d="M4.0625 20.8827C3.70019 20.7897 3.37913 20.5788 3.14997 20.2832C2.9208 19.9875 2.79657 19.624 2.79688 19.25V17.9844C2.79688 17.5368 2.97467 17.1076 3.29113 16.7911C3.6076 16.4747 4.03682 16.2969 4.48437 16.2969H5.32812C5.77568 16.2969 6.2049 16.4747 6.52137 16.7911C6.83783 17.1076 7.01562 17.5368 7.01562 17.9844V19.25C7.01592 19.624 6.8917 19.9875 6.66253 20.2832C6.43337 20.5788 6.11231 20.7897 5.75 20.8827C5.61258 20.9203 5.47061 20.9388 5.32812 20.9375H4.48437C4.34189 20.9388 4.19992 20.9203 4.0625 20.8827Z" fill="#FFDDCE"/>
<path d="M7.85938 10.3906L6.59375 12.0781L5.32812 10.3906H7.85938Z" fill="white"/>
<path d="M8.70312 5.32812H3.21875C3.21875 4.76868 3.44099 4.23216 3.83657 3.83657C4.23216 3.44099 4.76868 3.21875 5.32812 3.21875C5.80473 3.221 6.26623 3.38624 6.63594 3.68703C6.76021 3.65656 6.88767 3.64098 7.01562 3.64062C7.46318 3.64062 7.8924 3.81841 8.20887 4.13488C8.52533 4.45135 8.70312 4.88057 8.70312 5.32812Z" fill="#6A563D"/>
<path d="M5.75 7.85938H7.4375V10.3906H5.75V7.85938Z" fill="#FFCBBE"/>
<path d="M4.48438 5.32812H8.70312V7.01562C8.70312 7.29263 8.64856 7.56693 8.54256 7.82285C8.43655 8.07877 8.28118 8.3113 8.0853 8.50718C7.88943 8.70305 7.65689 8.85843 7.40097 8.96443C7.14505 9.07044 6.87076 9.125 6.59375 9.125C6.03431 9.125 5.49778 8.90276 5.1022 8.50718C4.70661 8.11159 4.48438 7.57507 4.48438 7.01562V5.32812Z" fill="#FFDDCE"/>
<path d="M15.0312 3.21875H18.4062V4.0625H15.0312V3.21875Z" fill="white"/>
<path d="M19.25 3.21875H21.7812V4.0625H19.25V3.21875Z" fill="white"/>
<path d="M15.0312 4.90625H16.7188V5.75H15.0312V4.90625Z" fill="white"/>
<path d="M17.5625 4.90625H21.7812V5.75H17.5625V4.90625Z" fill="white"/>
<path d="M15.0312 6.59375H17.5625V7.4375H15.0312V6.59375Z" fill="white"/>
<path d="M18.4062 6.59375H21.7812V7.4375H18.4062V6.59375Z" fill="white"/>
<path d="M15.0312 8.28125H21.7812V9.125H15.0312V8.28125Z" fill="white"/>
<path d="M15.0312 9.96875H21.7812V10.8125H15.0312V9.96875Z" fill="white"/>
<path d="M12.5367 8.54286L13.8028 5.58981L14.5779 5.92212L13.3118 8.87517L12.5367 8.54286Z" fill="#365E7D"/>
<path d="M13.483 8.94778C13.4847 9.09489 13.4452 9.23955 13.3691 9.36543L12.8164 10.3147L11.4116 9.25997L12.0402 8.44997C12.1438 8.31783 12.2861 8.22129 12.4471 8.1738C12.6082 8.12631 12.7801 8.13022 12.9389 8.185C13.0976 8.23977 13.2353 8.34268 13.3329 8.4794C13.4304 8.61612 13.4829 8.77984 13.483 8.94778Z" fill="#FFCBBE"/>
</svg>
