<svg width="27" height="27" viewBox="0 0 27 27" fill="none" xmlns="http://www.w3.org/2000/svg">
<path d="M25.0029 6.43163C25.158 6.68003 25.2995 6.93526 25.4374 7.19392C25.2995 6.94552 25.1546 6.67985 25.0029 6.43163Z" fill="#EBF0F3"/>
<path d="M20.3708 1.8786L20.6192 2.03034L20.3708 1.8786Z" fill="#EBF0F3"/>
<path d="M18.2357 8.54916C14.6934 13.5022 13.2621 14.5853 12.717 14.7577C12.8101 15.5683 13.3379 19.1105 15.0142 21.9629C15.9351 21.3594 20.5847 18.1689 23.2163 13.4124C25.2202 9.80106 25.1995 7.49706 24.9961 6.42102C23.9111 4.66548 22.4401 3.1803 20.695 2.07852C21.0433 3.60312 20.2191 5.7795 18.2357 8.54916Z" fill="#44C4A1"/>
<path d="M8.79529 0.843856L8.88151 0.809296L8.79529 0.843856Z" fill="#EBF0F3"/>
<path d="M2.1176 20.7663L1.87622 20.3766L2.1176 20.7663Z" fill="#EBF0F3"/>
<path d="M1.62787 7.06618L1.64515 7.03864L1.62787 7.06618Z" fill="#EBF0F3"/>
<path d="M2.51446 21.3387L2.24536 20.9558L2.51446 21.3387Z" fill="#EBF0F3"/>
<path d="M12.4203 26.9504C12.2547 26.9504 12.0754 26.9228 11.9237 26.9055C12.0893 26.9228 12.2549 26.9504 12.4203 26.9504Z" fill="#EBF0F3"/>
<path d="M19.4154 25.6364L19.0912 25.7847L19.4154 25.6364Z" fill="#EBF0F3"/>
<path d="M20.1224 4.36554C20.4673 3.25152 20.4673 2.48581 20.2949 1.97533C20.2742 1.91323 20.2501 1.85455 20.2294 1.79605C16.9303 -0.101155 12.9844 -0.519294 9.36115 0.644045C11.9256 0.633605 14.4645 1.15399 16.8182 2.17207C18.0433 2.69713 19.1629 3.44035 20.1224 4.36554Z" fill="#E56353"/>
<path d="M6.53962 19.2797C5.78002 17.1192 5.2708 14.8787 5.02204 12.6021C3.77392 12.5449 2.52472 12.6928 1.32448 13.0402C1.21648 15.902 1.64956 18.7585 2.60068 21.4595C4.7839 24.4515 8.10184 26.4135 11.7755 26.8851C9.5611 25.3123 7.77442 22.7323 6.53962 19.2797Z" fill="#E56353"/>
<path d="M14.8142 22.339V22.3149L14.7969 22.2803C14.2954 21.4444 13.876 20.562 13.5448 19.6451C12.9702 18.0552 12.5723 16.4069 12.3582 14.73C10.9573 13.9623 9.46132 13.3824 7.90882 13.0055C7.08676 12.8051 6.24904 12.6759 5.40466 12.6192C5.64982 14.8533 6.14986 17.052 6.8947 19.1726C7.85698 21.8458 9.57814 25.143 12.5582 26.9677C12.8756 26.9884 13.1929 27.0057 13.5171 27.0057C15.3887 27.0069 17.24 26.6181 18.9529 25.8639C17.3216 25.3432 15.9143 24.1464 14.8142 22.339Z" fill="#FCD462"/>
<path d="M0.958861 13.1539C0.63288 13.2664 0.31284 13.3953 0 13.5402C0.0054 15.9184 0.64224 18.2526 1.84536 20.3041C1.1871 17.9799 0.8883 15.5686 0.958861 13.1539Z" fill="#44C4A1"/>
<path d="M1.13129 12.7229C2.43683 12.3335 3.79961 12.1724 5.15987 12.247H5.22197C6.15221 12.2988 7.07579 12.4351 7.98137 12.6539C9.57779 13.0429 11.1155 13.6412 12.555 14.4338C12.7206 14.4062 13.8658 13.9993 17.8254 8.4909C16.2823 7.63662 14.6282 7.0005 12.9103 6.60072C9.17675 5.6964 5.26391 5.8638 1.62125 7.08366C0.611634 8.95116 0.0597539 11.0316 0.0102539 13.154C0.359814 12.997 0.717834 12.86 1.08287 12.7436L1.13129 12.7229Z" fill="#27A2DB"/>
<path d="M27 13.4989C27.0015 11.3131 26.471 9.15996 25.4547 7.22478C25.4961 8.54238 25.1649 10.643 23.5302 13.5851C20.8502 18.4139 16.1248 21.6665 15.2005 22.2701C16.1594 23.7947 17.4665 25.0777 19.2395 25.5709L19.4361 25.6262C24.066 23.3593 27.0009 18.6539 27 13.4989Z" fill="#E56353"/>
<path d="M13.0102 6.25554C14.7723 6.66432 16.4668 7.32294 18.0425 8.21124C18.8291 7.1451 19.4825 5.9868 19.9878 4.76208C19.0338 3.80142 17.9021 3.03534 16.656 2.50632C14.9314 1.72674 12.2065 0.930057 8.37794 1.02672C5.66984 2.13624 3.39302 4.0914 1.88678 6.6006C5.49452 5.4783 9.33986 5.35914 13.0102 6.25554Z" fill="#FCD462"/>
<path d="M19.4373 25.626L19.4155 25.6371L19.4373 25.626Z" fill="#D5D6DB"/>
<path d="M2.24542 20.9558L2.1178 20.7661L2.24542 20.9558Z" fill="#D5D6DB"/>
<path d="M11.7755 26.892H11.9134L11.7651 26.8713L11.7755 26.892Z" fill="#D5D6DB"/>
<path d="M2.60068 21.4665C2.56973 21.4285 2.54201 21.3871 2.51447 21.3457C2.54561 21.3802 2.57315 21.4319 2.60068 21.4665Z" fill="#D5D6DB"/>
<path d="M18.9393 25.857L19.0911 25.7847L18.9359 25.857H18.9393Z" fill="#D5D6DB"/>
<path d="M25.4548 7.22134L25.4377 7.19362L25.4548 7.22476V7.22134Z" fill="#D5D6DB"/>
<path d="M1.84888 20.3178L1.88326 20.3765L1.84546 20.3073L1.84888 20.3178Z" fill="#D5D6DB"/>
<path d="M20.2261 1.79253L20.3676 1.87533L20.2261 1.79253Z" fill="#D5D6DB"/>
<path d="M20.6916 2.07511L20.619 2.03029L20.695 2.07853L20.6916 2.07511Z" fill="#D5D6DB"/>
<path d="M24.9961 6.41756V6.42117L25.0033 6.43218L24.9961 6.41756Z" fill="#D5D6DB"/>
<path d="M9.36117 0.643814C9.19899 0.695474 9.03699 0.750734 8.87823 0.809414C9.04041 0.750734 9.20241 0.699074 9.36801 0.643814H9.36117Z" fill="#D5D6DB"/>
<path d="M8.3678 1.00933L8.79206 0.843735C8.65058 0.895575 8.50928 0.950655 8.3678 1.00933Z" fill="#D5D6DB"/>
<path d="M1.62115 7.08073L1.62837 7.0661L1.62115 7.08073Z" fill="#D5D6DB"/>
<path d="M1.88322 6.60066C1.80042 6.74322 1.72104 6.8847 1.64526 7.02492C1.72122 6.88344 1.80384 6.74214 1.88664 6.60066H1.88322Z" fill="#D5D6DB"/>
<path d="M0.0103627 13.1538V13.4987V13.5435V13.4987C0.000102697 13.3781 0.0069427 13.2607 0.0103627 13.1538Z" fill="#D5D6DB"/>
<path d="M15.2005 22.2699C16.1248 21.6663 20.8502 18.4137 23.5302 13.5849C25.1651 10.6428 25.4961 8.54217 25.4548 7.22457V7.19361C25.3169 6.93495 25.1754 6.67971 25.0202 6.43131C25.2238 7.50753 25.2445 9.81153 23.2404 13.4227C20.6086 18.1653 15.9592 21.3558 15.0383 21.9732C13.3379 19.1105 12.8101 15.5681 12.7102 14.7714C13.2621 14.5851 14.6935 13.5021 18.2288 8.56287C20.2121 5.80347 21.0365 3.61683 20.688 2.09223L20.612 2.04399L20.3636 1.89225L20.2222 1.80945C20.2429 1.86813 20.267 1.92681 20.2877 1.98873C20.4463 2.49921 20.4774 3.26493 20.1152 4.37895C19.1587 3.45483 18.0427 2.71161 16.8212 2.18529C14.4677 1.16217 11.9276 0.637287 9.36113 0.643767C9.19553 0.699027 9.01625 0.750687 8.87135 0.809367L8.78513 0.843927L8.36087 1.00953C12.1963 0.912867 14.9143 1.69929 16.6389 2.48913C17.8852 3.01797 19.0169 3.78423 19.9707 4.74489C19.4653 5.96961 18.812 7.12791 18.0254 8.19405C16.4542 7.31331 14.7655 6.66063 13.0103 6.25563C9.33989 5.35905 5.49455 5.47839 1.88681 6.60051C1.80401 6.74199 1.72121 6.88329 1.64543 7.02477L1.62797 7.05231C5.27135 5.84397 9.18167 5.68737 12.9102 6.60051C14.6308 7.00191 16.2872 7.64037 17.8321 8.49753C13.8725 14.0161 12.7273 14.4129 12.5617 14.4404C11.1203 13.6475 9.58001 13.049 7.98125 12.6606C7.07567 12.4417 6.15209 12.3054 5.22185 12.2536H5.15975C3.79949 12.1792 2.43653 12.3402 1.13117 12.7295L1.06565 12.7502C0.706552 12.865 0.354292 12.9997 0.0101318 13.1538V13.4986V13.5435C0.319552 13.3977 0.636172 13.2675 0.958732 13.1538C0.887992 15.5685 1.18697 17.9796 1.84523 20.3039L1.88321 20.3728L2.12459 20.7625L2.24537 20.9523L2.51447 21.3351C2.54201 21.3765 2.56973 21.4179 2.60069 21.4559C1.64957 18.7546 1.21649 15.8982 1.32449 13.0366C2.52491 12.6904 3.77393 12.5437 5.02205 12.6021C5.27099 14.8787 5.78021 17.1192 6.53963 19.2797C7.77443 22.7289 9.56111 25.3122 11.7755 26.8678L11.9238 26.8885C12.0894 26.8885 12.2687 26.923 12.4204 26.9333H12.5412C9.56111 25.1086 7.83995 21.8112 6.87767 19.1382C6.13283 17.0176 5.63279 14.8189 5.38763 12.5848C6.23183 12.6415 7.06973 12.7707 7.89179 12.9711C9.44429 13.348 10.9403 13.9279 12.3412 14.6956C12.5552 16.3725 12.9532 18.0208 13.5278 19.6107C13.859 20.5275 14.2782 21.41 14.7799 22.2459L14.7971 22.2805V22.3046C15.9112 24.112 17.3047 25.3088 18.9361 25.8227L19.0912 25.7503L19.4154 25.602H19.4361L19.2395 25.5468C17.4665 25.0775 16.1594 23.7945 15.2005 22.2699Z" fill="#EBF0F3"/>
</svg>
