<svg width="27" height="27" viewBox="0 0 27 27" fill="none" xmlns="http://www.w3.org/2000/svg">
<g clip-path="url(#clip0)">
<path d="M23.2875 3.88126H20.1938V9.28126H23.2875V3.88126Z" fill="#F05540"/>
<path d="M24.4687 1.12494H19.0125V4.04996H24.4687V1.12494Z" fill="#F3705A"/>
<path d="M2.36249 14.5688V27H24.4125V14.5688C20.0812 10.2375 17.6625 7.81875 13.3875 3.54373C9.11249 7.87497 6.69372 10.2937 2.36249 14.5688Z" fill="#FFD15C"/>
<path d="M24.4687 14.5688C20.1375 10.2375 17.7187 7.81875 13.4437 3.54373C11.25 5.68121 9.56247 7.36871 7.87497 9.05622C6.18747 10.7437 4.49997 12.4312 2.36249 14.5687V17.0999C6.69372 12.7687 9.11249 10.3499 13.3875 6.07493C17.7187 10.4062 20.1375 12.8249 24.4125 17.0999V17.4374V14.5687H24.4687V14.5688Z" fill="#F7B64C"/>
<path d="M11.4188 27.0001H4.78131V20.4751C4.78131 18.6189 6.30006 17.1564 8.10004 17.1564C9.95629 17.1564 11.4188 18.6751 11.4188 20.4751V27.0001Z" fill="#415A6B"/>
<path d="M22.0501 17.1562H13.3876V24.75H22.0501V17.1562Z" fill="#344A5E"/>
<path d="M17.2688 18.0562H14.2875V23.85H17.2688V18.0562Z" fill="#8AD7F8"/>
<path d="M21.15 18.0562H18.1688V23.85H21.15V18.0562Z" fill="#8AD7F8"/>
<path d="M26.4937 12.2625L14.7375 0.50625C14.0625 -0.16875 12.8813 -0.16875 12.2063 0.50625L0.50625 12.2625C-0.16875 12.9375 -0.16875 14.1187 0.50625 14.7937C1.18125 15.4687 2.3625 15.4687 3.0375 14.7937L13.5 4.33123L23.9625 14.7937C24.6375 15.4687 25.8188 15.4687 26.4937 14.7937C27.1687 14.0625 27.1687 12.9375 26.4937 12.2625Z" fill="#F3705A"/>
</g>
<defs>
<clipPath id="clip0">
<rect width="27" height="27" fill="white"/>
</clipPath>
</defs>
</svg>
