<svg width="27" height="27" viewBox="0 0 27 27" fill="none" xmlns="http://www.w3.org/2000/svg">
<g clip-path="url(#clip0)">
<path d="M11.2439 25.5696C11.2439 26.3375 11.8662 26.9602 12.6341 26.9602H14.4878C15.2556 26.9602 15.8781 26.3375 15.8781 25.5696V22.7885H11.2439V25.5696Z" fill="#EBEBEB"/>
<path d="M9.06014 17.7624C8.65488 17.5013 8.2727 17.2052 7.91835 16.8782C7.61582 18.0417 6.47244 18.7796 5.28787 18.5759C4.10309 18.3722 3.27174 17.2951 3.3747 16.0971C3.47766 14.8992 4.48074 13.9798 5.68295 13.9816C5.75378 13.9816 5.82189 13.9963 5.88955 14.0025C5.45034 12.9697 5.22384 11.8591 5.22406 10.737H4.63416L4.31398 12.2604C4.28207 12.4123 4.1764 12.5381 4.03249 12.5956C3.88835 12.6533 3.7252 12.635 3.59758 12.5469L2.31708 11.664L0.926832 13.0546L1.80728 14.3352C1.8953 14.463 1.91363 14.6262 1.85593 14.7702C1.79845 14.9143 1.67264 15.02 1.52104 15.0517L0 15.3722V17.2263L1.52285 17.5465C1.67445 17.5784 1.80026 17.6841 1.85796 17.8281C1.91544 17.972 1.89711 18.1354 1.80909 18.2631L0.926832 19.5439L2.31708 20.9344L3.59758 20.0536C3.7252 19.9655 3.88858 19.947 4.03271 20.0047C4.17685 20.0622 4.28252 20.1882 4.31443 20.3401L4.63416 21.8615H6.48782L6.80755 20.3378C6.83946 20.1857 6.94513 20.0599 7.08927 20.0024C7.23341 19.9447 7.39678 19.963 7.5244 20.0513L8.8049 20.9344L10.2596 19.4794C10.1071 18.7689 9.67471 18.1499 9.06014 17.7624Z" fill="#C9DFFF"/>
<path d="M21.9025 10.737C21.9021 6.73664 19.063 3.2994 15.1355 2.54437C11.208 1.78934 7.29722 3.92859 5.8142 7.64376C4.33118 11.3589 5.69292 15.6042 9.06015 17.7624C9.83176 18.2409 10.3058 19.0803 10.3171 19.9884V21.8615C10.3171 22.6294 10.9394 23.252 11.7074 23.252H15.4147C16.1825 23.252 16.8049 22.6294 16.8049 21.8615V20.0268C16.8167 19.0973 17.3003 18.2377 18.0886 17.7452C20.4677 16.2089 21.9041 13.5695 21.9025 10.737Z" fill="#FFB41F"/>
<path d="M24.7724 5.83336L26.2294 4.74042L24.561 2.51539L23.104 3.60833C22.8042 3.83307 22.3985 3.85503 22.0761 3.66401C21.7536 3.47299 21.578 3.10656 21.6307 2.73561L21.888 0.932908L19.1354 0.539551L18.8781 2.34203C18.8254 2.71343 18.5541 3.01626 18.1909 3.10928C17.8277 3.20252 17.4442 3.06763 17.2192 2.76752L16.1268 1.3102L13.9025 2.97891L14.9947 4.43624C15.2194 4.73635 15.2414 5.14193 15.0504 5.46444C14.8594 5.78696 14.4931 5.96259 14.1222 5.90986L12.3199 5.65252L11.9264 8.4058L13.7291 8.66313C14.1002 8.7161 14.403 8.98746 14.496 9.35072C14.589 9.71397 14.4541 10.0976 14.1541 10.3226L12.6975 11.4155L14.3659 13.6403L15.8224 12.5478C16.1223 12.3229 16.5282 12.3007 16.8509 12.4917C17.1733 12.6827 17.3491 13.0494 17.2962 13.4205L17.0366 15.2228L19.7893 15.6164L20.0488 13.8132C20.1018 13.442 20.3731 13.1394 20.7363 13.0464C21.0995 12.9532 21.483 13.0883 21.7077 13.3882L22.8006 14.8451L25.0249 13.1763L23.9318 11.7195C23.7068 11.4196 23.6847 11.0135 23.8756 10.6908C24.0666 10.3683 24.4332 10.1924 24.8043 10.2456L26.6066 10.5032L27.0001 7.7499L25.1978 7.49234C24.8269 7.43915 24.5244 7.16801 24.4312 6.80476C24.3382 6.44173 24.4728 6.05833 24.7724 5.83336ZM19.4635 11.3223C17.6718 11.3223 16.2196 9.86969 16.2196 8.07762C16.2196 6.28579 17.6718 4.83299 19.4635 4.83299C21.2551 4.83299 22.7074 6.28579 22.7074 8.07762C22.7074 9.86969 21.2551 11.3223 19.4635 11.3223Z" fill="#1CC8EB"/>
<path d="M11.2439 24.179H15.8781V25.1061H11.2439V24.179Z" fill="#9E9E9E"/>
<path d="M13.0976 20.4709H14.0244V21.8615H13.0976V20.4709Z" fill="#FFAA00"/>
<path d="M14.0245 19.5439H13.0976C13.0972 18.3183 12.3416 17.2197 11.1976 16.7811C8.91694 15.8891 7.33255 13.7888 7.10129 11.3503C6.87004 8.91189 8.03107 6.55107 10.1033 5.24606L10.595 6.03029C8.81829 7.14857 7.82244 9.1724 8.02066 11.263C8.21865 13.3533 9.57677 15.154 11.532 15.9185C13.0341 16.4932 14.0256 17.9354 14.0245 19.5439Z" fill="#FFAA00"/>
<path d="M22.8294 17.2263H25.1465C25.4024 17.2263 25.6099 17.4336 25.6099 17.6898C25.6099 17.9458 25.4024 18.1533 25.1465 18.1533H22.8294C22.5735 18.1533 22.366 17.9458 22.366 17.6898C22.366 17.4336 22.5735 17.2263 22.8294 17.2263Z" fill="#FFAA00"/>
<path d="M21.9025 20.0076C22.0664 19.8109 22.3585 19.7842 22.5551 19.9481L24.6238 21.672C24.8204 21.8359 24.8471 22.1281 24.6833 22.3248C24.5192 22.5214 24.2271 22.5482 24.0305 22.3843L21.9618 20.6604C21.7652 20.4965 21.7387 20.2043 21.9025 20.0076Z" fill="#FFAA00"/>
<path d="M20.0489 20.9344C20.3048 20.9344 20.5123 21.1418 20.5123 21.398V23.7156C20.5123 23.9715 20.3048 24.1791 20.0489 24.1791C19.793 24.1791 19.5855 23.9715 19.5855 23.7156V21.398C19.5855 21.1418 19.793 20.9344 20.0489 20.9344Z" fill="#FFAA00"/>
<path d="M0.459392 7.85674L3.26749 7.15513C3.51595 7.09311 3.76734 7.24407 3.82934 7.49236C3.89134 7.74064 3.74041 7.99209 3.49196 8.0541L0.683859 8.75572C0.435406 8.81773 0.184012 8.66677 0.122012 8.41849C0.0600121 8.17021 0.210939 7.91876 0.459392 7.85674Z" fill="#FFAA00"/>
<path d="M1.04857 2.85741C1.19723 2.64919 1.48664 2.60121 1.69481 2.74991L4.18432 4.52862C4.39272 4.67731 4.44091 4.96679 4.29225 5.17501C4.14359 5.38323 3.85418 5.43144 3.646 5.28252L1.1565 3.50381C0.948099 3.35511 0.899902 3.06564 1.04857 2.85741Z" fill="#FFAA00"/>
<path d="M5.19897 0.0756099C5.44697 0.0122381 5.69927 0.161841 5.76263 0.409896L6.48083 3.21976C6.54419 3.46781 6.39462 3.72039 6.14662 3.78377C5.89862 3.84714 5.64632 3.69731 5.58297 3.44948L4.86476 0.639619C4.8014 0.391563 4.95097 0.138982 5.19897 0.0756099Z" fill="#FFAA00"/>
</g>
<defs>
<clipPath id="clip0">
<rect width="27" height="27" fill="white"/>
</clipPath>
</defs>
</svg>
