<svg width="28" height="23" viewBox="0 0 28 23" fill="none" xmlns="http://www.w3.org/2000/svg">
<path d="M8.0903 0.275116V1.53126L6.85763 1.82025L5.58057 1.53126V0.275116C5.58057 0.123211 5.70372 0 5.85568 0H7.81524C7.96714 0 8.0903 0.123156 8.0903 0.275116Z" fill="#5A5A5A"/>
<path d="M8.09033 0.275282V1.53126L7.474 1.82025L7.13295 1.53126V0.275282C7.13295 0.123211 7.00974 0 6.85767 0H7.81505C7.96712 0 8.09033 0.123211 8.09033 0.275282Z" fill="#444444"/>
<path d="M25.1845 0.275116V1.53126L23.9013 1.76475L22.6747 1.53126V0.275116C22.6747 0.123211 22.7979 0 22.9499 0H24.9094C25.0613 0 25.1845 0.123156 25.1845 0.275116Z" fill="#5A5A5A"/>
<path d="M25.1844 0.275282V1.53126L24.5626 1.64442L24.216 1.53126V0.275282C24.216 0.123211 24.0927 0 23.9407 0H24.9092C25.0612 0 25.1844 0.123211 25.1844 0.275282Z" fill="#444444"/>
<path d="M28 2.75255V16.5189C28 17.1934 27.4532 17.7402 26.7787 17.7402H25.4753L23.2389 17.3789L21.0025 17.7402H4.19199C3.40389 17.7402 2.76508 17.1008 2.76508 16.3133V2.95818C2.76508 2.17062 3.40389 1.53126 4.19199 1.53126H26.7787C27.4532 1.53126 28 2.07805 28 2.75255Z" fill="#DDEAFB"/>
<path d="M28 2.75227V16.5192C28 17.1935 27.4533 17.7402 26.7785 17.7402H25.5974C26.2717 17.7402 26.819 17.1935 26.819 16.5192V2.75227C26.819 2.07794 26.2717 1.53126 25.5974 1.53126H26.7785C27.4533 1.53126 28 2.07794 28 2.75227Z" fill="#CBE2FF"/>
<path d="M25.4753 16.1938V17.7402H21.0025V16.1938C21.0025 15.9477 21.202 15.7483 21.4481 15.7483H25.0297C25.2758 15.7483 25.4753 15.9477 25.4753 16.1938Z" fill="#528FD8"/>
<path d="M25.4753 16.1939V17.7402H24.347V16.1939C24.347 15.9475 24.1472 15.7483 23.9013 15.7483H25.0296C25.2761 15.7483 25.4753 15.9475 25.4753 16.1939Z" fill="#0473CE"/>
<path d="M19.9114 12.0308L18.6931 11.614L18.0871 10.2065L18.8814 9.41183L19.5751 8.91682C19.6709 8.69693 19.9114 12.0308 19.9114 12.0308Z" fill="#FFCEBF"/>
<path d="M20.1472 8.92337L19.9113 12.0308L19.149 11.77L19.0439 11.1634L19.1628 9.5952C19.1742 9.44441 19.0147 9.34045 18.8813 9.41183L19.6145 8.67861C19.8192 8.47381 20.1688 8.63421 20.1472 8.92337Z" fill="#FFB09E"/>
<path d="M19.9108 12.0303L17.2357 15.2893C16.7567 15.8726 16.1085 16.2927 15.3803 16.4914L11.1 17.6619C10.9309 17.7081 10.8137 17.8617 10.8137 18.037V22.2147H2.07074V19.5884C2.07074 18.8519 2.15455 18.1204 2.31994 17.4078C2.48477 16.6952 2.73064 16.0008 3.05476 15.3393C3.46491 14.5023 4.31573 13.9712 5.24814 13.9712H12.2623C14.0311 13.9712 15.7044 13.1698 16.8122 11.7917L18.0871 10.2066L19.0439 11.1634L19.9108 12.0303Z" fill="#82AEE3"/>
<path d="M19.9109 12.0303L17.2357 15.2893C16.7568 15.8726 16.1085 16.2927 15.3804 16.4914L11.1 17.6619C10.931 17.7082 10.8138 17.8617 10.8138 18.037V22.2147H9.40961V18.037C9.40961 17.8618 9.52682 17.7082 9.69588 17.6619L13.9762 16.4914C14.7044 16.2927 15.3526 15.8726 15.8316 15.2893L19.0439 11.1634L19.9109 12.0303Z" fill="#528FD8"/>
<path d="M9.58644 9.56861V11.6842C9.58644 12.9476 8.56201 13.9714 7.29865 13.9714C7.25086 13.9714 7.20308 13.9702 7.1559 13.9665C5.9587 13.893 5.01147 12.8998 5.01147 11.6842V9.56861H9.58644Z" fill="#FFCEBF"/>
<path d="M16.2589 5.52485H14.5061C14.3641 5.52485 14.249 5.40974 14.249 5.26777V4.25023C14.249 4.10826 14.3641 3.99315 14.5061 3.99315H16.2589C16.4008 3.99315 16.5159 4.10826 16.5159 4.25023V5.26777C16.516 5.40974 16.4009 5.52485 16.2589 5.52485Z" fill="#528FD8"/>
<path d="M16.2589 8.6315H14.5061C14.3641 8.6315 14.249 8.51639 14.249 8.37442V7.35687C14.249 7.2149 14.3641 7.09979 14.5061 7.09979H16.2589C16.4008 7.09979 16.5159 7.2149 16.5159 7.35687V8.37442C16.516 8.51639 16.4009 8.6315 16.2589 8.6315Z" fill="#528FD8"/>
<path d="M9.58662 9.56883V11.684C9.58662 12.9477 8.56208 13.9711 7.29889 13.9711C7.25061 13.9711 7.20288 13.97 7.1557 13.9667C6.99475 13.9567 6.83824 13.9306 6.68839 13.8884C5.72102 13.622 5.01172 12.7368 5.01172 11.684V9.56883H9.58662Z" fill="#FFCEBF"/>
<path d="M9.58665 9.56883V11.684C9.58665 12.9477 8.56211 13.9711 7.29892 13.9711C7.25064 13.9711 7.2029 13.97 7.15573 13.9667C6.99478 13.9567 6.83827 13.9306 6.68842 13.8884C7.65523 13.6215 8.36564 12.7362 8.36564 11.684V9.56883H9.58665Z" fill="#FFB09E"/>
<path d="M11.5058 8.10474C11.5058 9.0105 10.7721 9.74422 9.86633 9.74422H6.90927V12.0131C6.90927 13.0554 5.79093 13.3912 5.12604 12.9688C4.85797 12.7984 4.66372 12.5054 4.64596 12.0863C4.64429 12.0514 4.64374 12.0153 4.64374 11.9798V8.8601C4.64374 8.13249 5.2326 7.54307 5.96021 7.54307H7.10407C7.91871 7.54307 8.22308 6.89954 8.89175 6.60511C9.19517 6.47302 9.53855 6.44966 9.86633 6.4647C10.7721 6.4647 11.5058 7.19897 11.5058 8.10474Z" fill="#5A5A5A"/>
<path d="M4.90503 8.07198C4.93 8.03813 4.95665 8.00538 4.98551 7.9743C4.9572 8.00538 4.93056 8.03813 4.90503 8.07198Z" fill="#444444"/>
<path d="M6.51349 9.74422H6.90921V12.0131C6.90921 13.0554 5.79087 13.3912 5.12598 12.9688C5.42068 12.7868 5.6327 12.4671 5.6327 12.0131V10.625C5.6327 10.1383 6.02675 9.74422 6.51349 9.74422Z" fill="#444444"/>
<path d="M11.5058 8.10473C11.5058 9.0105 10.7721 9.74421 9.86631 9.74421H8.55261C9.45394 9.74421 10.2287 9.00717 10.2293 8.10584C10.2298 7.36879 9.74421 6.74497 9.07543 6.53795C9.30775 6.4663 9.61267 6.45387 9.86631 6.46469C10.7721 6.46469 11.5058 7.19896 11.5058 8.10473Z" fill="#444444"/>
<path d="M12.3637 21.7986H0.416254C0.186371 21.7986 0 21.985 0 22.2148C0 22.4447 0.186371 22.6311 0.416254 22.6311H12.3637C12.5936 22.6311 12.78 22.4447 12.78 22.2148C12.78 21.985 12.5936 21.7986 12.3637 21.7986Z" fill="#0067C5"/>
<path d="M25.4754 5.1752H18.0868C17.857 5.1752 17.6706 4.98883 17.6706 4.75894C17.6706 4.52906 17.857 4.34269 18.0868 4.34269H25.4754C25.7052 4.34269 25.8916 4.52906 25.8916 4.75894C25.8916 4.98883 25.7052 5.1752 25.4754 5.1752Z" fill="#FFF9DF"/>
<path d="M19.9109 8.2819H18.0868C17.857 8.2819 17.6706 8.09553 17.6706 7.86565C17.6706 7.63576 17.857 7.44939 18.0868 7.44939H19.9109C20.1408 7.44939 20.3271 7.63576 20.3271 7.86565C20.3271 8.09553 20.1408 8.2819 19.9109 8.2819Z" fill="#FFF9DF"/>
</svg>
