<svg width="26" height="26" viewBox="0 0 26 26" fill="none" xmlns="http://www.w3.org/2000/svg">
<g clip-path="url(#clip0)">
<path d="M14.9146 22.9089C14.9146 21.2297 13.5485 19.8686 11.8633 19.8686C10.1781 19.8686 8.81207 21.2297 8.81207 22.9089C8.81207 24.588 10.1781 25.9492 11.8633 25.9492C13.5485 25.9492 14.9146 24.588 14.9146 22.9089Z" fill="#F7C92B"/>
<path d="M11.8633 19.8686C11.5549 19.8686 11.2571 19.9146 10.9765 19.9995C12.229 20.378 13.1409 21.537 13.1409 22.9089C13.1409 24.2806 12.229 25.4398 10.9765 25.8183C11.2571 25.9032 11.5549 25.9492 11.8633 25.9492C13.5486 25.9492 14.9146 24.588 14.9146 22.9089C14.9146 21.2297 13.5486 19.8686 11.8633 19.8686Z" fill="#F2B51D"/>
<path d="M12.2199 5.16443C11.2398 5.36061 10.286 4.72822 10.0891 3.75167C9.89209 2.77533 10.5269 1.82476 11.5068 1.62858C12.4866 1.4324 13.4406 2.06479 13.6376 3.04133C13.8344 4.01768 13.1997 4.96824 12.2199 5.16443Z" fill="#F7C92B"/>
<path d="M13.6376 3.04133C13.4406 2.06479 12.4866 1.4324 11.5068 1.62858C11.4155 1.64683 11.3275 1.67183 11.2426 1.70237C11.8146 1.91105 12.2676 2.4026 12.3964 3.04133C12.5751 3.92683 12.0694 4.7911 11.2428 5.09063C11.5453 5.20092 11.881 5.23227 12.2199 5.16443C13.1997 4.96824 13.8343 4.01768 13.6376 3.04133Z" fill="#F2B51D"/>
<path d="M19.4207 22.4001H4.30601C2.9535 22.4001 1.85718 21.3077 1.85718 19.9602C1.85718 19.2141 2.19605 18.5082 2.77879 18.0398L3.26435 17.6494C4.3875 16.7469 5.0406 15.3863 5.0406 13.9486V11.3843C5.0406 7.60091 8.11848 4.534 11.9154 4.534C15.7122 4.534 18.7903 7.60091 18.7903 11.3843V13.996C18.7903 15.4065 19.4189 16.7445 20.5063 17.6479L20.9792 18.0406C21.5434 18.5094 21.8696 19.2036 21.8696 19.9356V19.9602C21.8696 21.3077 20.7732 22.4001 19.4207 22.4001Z" fill="#F7E249"/>
<path d="M20.9791 18.0406L20.5063 17.6479C19.4189 16.7443 18.7903 15.4066 18.7903 13.9958V11.3841C18.7903 7.60092 15.7122 4.53381 11.9154 4.53381C11.2427 4.53381 10.5927 4.63062 9.97839 4.81013C12.8321 5.64346 14.9162 8.27119 14.9162 11.3841V13.9958C14.9162 15.4066 15.5449 16.7443 16.6322 17.6479L17.1053 18.0406C17.6693 18.5094 17.9957 19.2036 17.9957 19.9356V19.9602C17.9957 21.3077 16.8994 22.4001 15.5468 22.4001H19.4209C20.7732 22.4001 21.8696 21.3077 21.8696 19.9602V19.9356C21.8696 19.2036 21.5434 18.5094 20.9791 18.0406Z" fill="#F7C92B"/>
<path d="M24.2232 5.82854C24.2232 2.58151 21.5816 -0.0507812 18.3228 -0.0507812C15.0641 -0.0507812 12.4222 2.58151 12.4222 5.82854C12.4222 9.07556 15.0641 11.7079 18.3228 11.7079C21.5816 11.7079 24.2232 9.07556 24.2232 5.82854Z" fill="#FC476E"/>
<path d="M19.906 0.163635C21.4108 1.22905 22.3924 2.98001 22.3924 4.95949C22.3924 8.20651 19.7508 10.8388 16.4921 10.8388C15.9435 10.8388 15.4127 10.764 14.9088 10.6244C15.8724 11.3067 17.0506 11.7078 18.3228 11.7078C21.5813 11.7078 24.2231 9.07555 24.2231 5.82852C24.2231 3.12799 22.3958 0.853149 19.906 0.163635Z" fill="#CC2B5A"/>
<path d="M18.3228 8.57448C18.0952 8.57448 17.9108 8.39079 17.9108 8.16406V4.20511L17.7571 4.34495C17.589 4.4977 17.3284 4.48579 17.1752 4.31818C17.0219 4.15076 17.0339 3.8911 17.202 3.73836L18.0451 2.97227C18.1657 2.86278 18.3397 2.83441 18.4891 2.90007C18.6384 2.96573 18.7346 3.11291 18.7346 3.27557V8.16406C18.7346 8.39079 18.5501 8.57448 18.3228 8.57448Z" fill="#E3FAFF"/>
</g>
<defs>
<clipPath id="clip0">
<rect width="26" height="26" fill="white"/>
</clipPath>
</defs>
</svg>
