<svg width="45" height="45" viewBox="0 0 45 45" fill="none" xmlns="http://www.w3.org/2000/svg">
<path d="M7.75389 39.4947C3.00366 35.3694 0 29.2854 0 22.5C0 10.0736 10.0736 0 22.5 0C34.9264 0 45 10.0736 45 22.5C45 29.2904 41.9919 35.3783 37.2357 39.5037L7.75389 39.4947Z" fill="#FE6A16"/>
<path d="M44.8144 25.4032L29.211 9.79984L12.6489 22.5001L17.9747 27.8259L17.2761 28.2104L28.5669 39.5012L37.2355 39.5038C41.3029 35.976 44.0917 31.0132 44.8144 25.4032Z" fill="#F24500"/>
<path d="M22.5 35.899C24.7907 35.899 26.8213 33.5677 28.0796 31.8519L26.7729 31.3859C25.8495 31.0566 25.225 30.1187 25.225 29.0609V25.8749H19.8225V29.0609C19.8225 30.1187 19.1981 31.0566 18.2746 31.3859L16.9304 31.8653C18.1894 33.5735 20.2152 35.899 22.5 35.899Z" fill="#FFBEAA"/>
<path d="M26.7726 31.3859C25.8491 31.0566 25.2247 30.1187 25.2247 29.0609V25.8749H22.4685V35.898C22.479 35.8981 22.4893 35.899 22.4998 35.899C24.7905 35.899 26.821 33.5677 28.0794 31.8519L26.7726 31.3859Z" fill="#FAA68E"/>
<path d="M35.1699 36.2212C34.1887 34.677 32.7703 33.5247 31.1312 32.9403L29.4948 32.3568L28.0794 32.3132C26.8212 34.029 24.7971 35.1289 22.5064 35.1289C20.2216 35.1289 18.0544 33.9879 16.7953 32.2798L15.516 32.3698L13.916 32.9403C12.2769 33.5248 10.8585 34.6771 9.87728 36.2213L7.75146 39.4927C11.7008 42.9233 16.8579 45 22.4999 45C28.1359 45 33.2879 42.9278 37.2356 39.5037L35.1699 36.2212Z" fill="white"/>
<path d="M37.2355 39.5035L35.1699 36.221C34.1886 34.6768 32.7703 33.5245 31.1311 32.9401L29.4948 32.3566L28.0794 32.313C26.8211 34.0288 24.797 35.1287 22.5063 35.1287C22.4936 35.1287 22.4812 35.1282 22.4685 35.1281V44.9994C22.479 44.9994 22.4893 44.9998 22.4998 44.9998C28.1359 44.9998 33.2878 42.9276 37.2355 39.5035Z" fill="#E9EDF5"/>
<path d="M22.5018 36.0563C25.348 36.0563 27.8798 34.4467 29.4958 32.3569L28.0796 31.8518C26.8213 33.5675 24.7908 34.6815 22.5001 34.6815C20.2153 34.6815 18.1894 33.5734 16.9304 31.8652L15.5173 32.3691C17.1337 34.452 19.6612 36.0563 22.5018 36.0563Z" fill="#E9EDF5"/>
<path d="M28.0793 31.8518C26.821 33.5675 24.7905 34.6815 22.4998 34.6815C22.4893 34.6815 22.479 34.681 22.4685 34.681V36.0557C22.4796 36.0558 22.4905 36.0563 22.5016 36.0563C25.3477 36.0563 27.8796 34.4468 29.4955 32.3569L28.0793 31.8518Z" fill="#CDD2E1"/>
<path d="M17.4201 20.6392C17.6861 19.0184 16.5878 17.4888 14.967 17.2227C13.3462 16.9567 11.8166 18.055 11.5505 19.6758C11.2845 21.2967 12.3828 22.8263 14.0036 23.0923C15.6245 23.3583 17.1541 22.26 17.4201 20.6392Z" fill="#FFBEAA"/>
<path d="M33.4621 20.6361C33.7281 19.0152 32.6298 17.4856 31.009 17.2196C29.3882 16.9536 27.8586 18.0519 27.5925 19.6727C27.3265 21.2935 28.4248 22.8231 30.0456 23.0891C31.6664 23.3552 33.1961 22.2569 33.4621 20.6361Z" fill="#FAA68E"/>
<path d="M22.5001 30.0148C17.8273 30.0148 14.0393 26.2268 14.0393 21.5541V18.6325C14.0393 13.9597 17.8273 10.1717 22.5001 10.1717C27.1729 10.1717 30.9609 13.9597 30.9609 18.6325V21.5541C30.9609 26.2268 27.1729 30.0148 22.5001 30.0148Z" fill="#FFDECF"/>
<path d="M22.5 10.1719C22.4896 10.1719 22.4792 10.1723 22.4688 10.1724V30.0147C22.4792 30.0147 22.4896 30.015 22.5 30.015C27.1728 30.015 30.9608 26.227 30.9608 21.5542V18.6326C30.9608 13.9599 27.1728 10.1719 22.5 10.1719Z" fill="#FFCDBE"/>
<path d="M31.8256 16.2744C31.8256 11.1131 27.6326 6.93104 22.4671 6.94897C17.3131 6.96681 13.1746 11.2216 13.1746 16.3757V19.4421C13.1746 20.0354 13.6555 20.5162 14.2487 20.5162C14.3764 14.6616 18.0203 11.0936 22.5001 11.0936C26.9799 11.0936 30.6238 14.6616 30.7514 20.5162C31.3447 20.5162 31.8256 20.0353 31.8256 19.4421V16.2744H31.8256Z" fill="#707789"/>
<path d="M22.4688 6.94884V11.0939C22.4792 11.0939 22.4896 11.0934 22.5 11.0934C26.9798 11.0934 30.6238 14.6613 30.7515 20.516C31.3447 20.516 31.8256 20.0351 31.8256 19.4419V16.2743C31.8256 11.1135 27.6335 6.93188 22.4688 6.94884Z" fill="#555A66"/>
</svg>
