<svg width="26" height="25" viewBox="0 0 26 25" fill="none" xmlns="http://www.w3.org/2000/svg">
<path d="M13.0976 20.4709H14.0244V21.8615H13.0976V20.4709Z" fill="#FFAA00"/>
<path d="M14.0245 19.5439H13.0976C13.0972 18.3183 12.3416 17.2197 11.1976 16.7811C8.91694 15.8891 7.33255 13.7888 7.10129 11.3503C6.87004 8.91189 8.03107 6.55107 10.1033 5.24606L10.595 6.03029C8.81829 7.14857 7.82244 9.1724 8.02066 11.263C8.21865 13.3533 9.57677 15.154 11.532 15.9185C13.0341 16.4932 14.0256 17.9354 14.0245 19.5439Z" fill="#FFAA00"/>
<path d="M22.8294 17.2263H25.1465C25.4024 17.2263 25.6099 17.4336 25.6099 17.6898C25.6099 17.9458 25.4024 18.1533 25.1465 18.1533H22.8294C22.5735 18.1533 22.366 17.9458 22.366 17.6898C22.366 17.4336 22.5735 17.2263 22.8294 17.2263Z" fill="#FFAA00"/>
<path d="M21.9025 20.0076C22.0664 19.8109 22.3585 19.7842 22.5551 19.9481L24.6238 21.672C24.8204 21.8359 24.8471 22.1281 24.6833 22.3248C24.5192 22.5214 24.2271 22.5482 24.0305 22.3843L21.9618 20.6604C21.7652 20.4965 21.7387 20.2043 21.9025 20.0076Z" fill="#FFAA00"/>
<path d="M20.0489 20.9344C20.3048 20.9344 20.5123 21.1418 20.5123 21.398V23.7156C20.5123 23.9715 20.3048 24.1791 20.0489 24.1791C19.793 24.1791 19.5855 23.9715 19.5855 23.7156V21.398C19.5855 21.1418 19.793 20.9344 20.0489 20.9344Z" fill="#FFAA00"/>
<path d="M0.459392 7.85674L3.26749 7.15513C3.51595 7.09311 3.76734 7.24407 3.82934 7.49236C3.89134 7.74064 3.74041 7.99209 3.49196 8.0541L0.683859 8.75572C0.435406 8.81773 0.184012 8.66677 0.122012 8.41849C0.0600121 8.17021 0.210939 7.91876 0.459392 7.85674Z" fill="#FFAA00"/>
<path d="M1.04857 2.85741C1.19723 2.64919 1.48664 2.60121 1.69481 2.74991L4.18432 4.52862C4.39272 4.67731 4.44091 4.96679 4.29225 5.17501C4.14359 5.38323 3.85418 5.43144 3.646 5.28252L1.1565 3.50381C0.948099 3.35511 0.899902 3.06564 1.04857 2.85741Z" fill="#FFAA00"/>
<path d="M5.19897 0.0756099C5.44697 0.0122381 5.69927 0.161841 5.76263 0.409896L6.48083 3.21976C6.54419 3.46781 6.39462 3.72039 6.14662 3.78377C5.89862 3.84714 5.64632 3.69731 5.58297 3.44948L4.86476 0.639619C4.8014 0.391563 4.95097 0.138982 5.19897 0.0756099Z" fill="#FFAA00"/>
</svg>
