<svg width="27" height="27" viewBox="0 0 27 27" fill="none" xmlns="http://www.w3.org/2000/svg">
<path d="M26.185 10.1862V23.3331C26.185 23.5581 26.0026 23.7405 25.7776 23.7405H24.5552L23.7404 22.1107V11.4085L24.5552 9.77875H25.7776C26.0026 9.77875 26.185 9.96117 26.185 10.1862Z" fill="#3B88F5"/>
<path d="M24.5553 9.77875V23.7405H21.4723C21.2472 23.7405 21.0648 23.5581 21.0648 23.3331V10.1862C21.0648 9.96117 21.2472 9.77875 21.4723 9.77875H24.5553Z" fill="#28A6FA"/>
<path d="M12.6851 5.2967V23.3329C12.6851 23.5579 12.5027 23.7404 12.2777 23.7404H11.0554L10.2405 22.1106V6.51903L11.0554 4.88925H12.2777C12.5027 4.88925 12.6851 5.07168 12.6851 5.2967Z" fill="#FFBC2B"/>
<path d="M11.0553 4.88925V23.7404H7.97233C7.74731 23.7404 7.56488 23.5579 7.56488 23.3329V5.2967C7.56488 5.07168 7.74731 4.88925 7.97233 4.88925H11.0553Z" fill="#FFCF66"/>
<path d="M5.93521 15.0754V23.333C5.93521 23.558 5.75278 23.7404 5.52776 23.7404H4.30543L3.49054 22.1106V16.2978L4.30543 14.668H5.52776C5.75278 14.668 5.93521 14.8504 5.93521 15.0754Z" fill="#FF6333"/>
<path d="M4.30532 14.668V23.7404H1.22232C0.997307 23.7404 0.81488 23.558 0.81488 23.333V15.0754C0.81488 14.8504 0.997307 14.668 1.22232 14.668H4.30532Z" fill="#FF8730"/>
<path d="M19.4351 0.40746V23.333C19.4351 23.558 19.2527 23.7405 19.0277 23.7405H17.8054L16.9905 22.1107V1.62979L17.8054 1.52588e-05H19.0277C19.2527 1.52588e-05 19.4351 0.182442 19.4351 0.40746Z" fill="#61CE5A"/>
<path d="M17.8053 1.52588e-05V23.7405H14.7223C14.4973 23.7405 14.3149 23.558 14.3149 23.333V0.40746C14.3149 0.182442 14.4973 1.52588e-05 14.7223 1.52588e-05H17.8053Z" fill="#94E368"/>
<path d="M26.1851 25.3701H24.5554V26.9999H26.1851C26.6352 26.9999 27 26.6351 27 26.185C27 25.735 26.6352 25.3701 26.1851 25.3701Z" fill="#8AE7FF"/>
<path d="M25.3702 26.185C25.3702 25.735 25.0054 25.3701 24.5553 25.3701H0.814889C0.364853 25.3701 0 25.735 0 26.185C0 26.6351 0.364853 26.9999 0.814889 26.9999H24.5553C25.0054 26.9999 25.3702 26.6351 25.3702 26.185Z" fill="#BDF2FF"/>
</svg>
